<svg xmlns="http://www.w3.org/2000/svg" xmlns:xlink="http://www.w3.org/1999/xlink" viewBox="0 0 156.8 103.15"><defs><style>.cls-1{mask:url(#mask);filter:url(#luminosity-noclip-6);}.cls-10,.cls-13,.cls-15,.cls-17,.cls-19,.cls-2,.cls-21,.cls-4,.cls-6,.cls-8{mix-blend-mode:multiply;}.cls-2{fill:url(#linear-gradient);}.cls-3{mask:url(#mask-2);filter:url(#luminosity-noclip-7);}.cls-4{fill:url(#linear-gradient-2);}.cls-5{mask:url(#mask-3);filter:url(#luminosity-noclip-8);}.cls-6{fill:url(#linear-gradient-3);}.cls-7{mask:url(#mask-4);filter:url(#luminosity-noclip-9);}.cls-8{fill:url(#linear-gradient-4);}.cls-9{mask:url(#mask-5);filter:url(#luminosity-noclip-10);}.cls-10{fill:url(#linear-gradient-5);}.cls-11{isolation:isolate;}.cls-12{mask:url(#mask-6);}.cls-13{fill:url(#linear-gradient-6);}.cls-14{mask:url(#mask-7);}.cls-15{fill:url(#linear-gradient-7);}.cls-16{mask:url(#mask-8);}.cls-17{fill:url(#linear-gradient-8);}.cls-18{mask:url(#mask-9);}.cls-19{fill:url(#linear-gradient-9);}.cls-20{mask:url(#mask-10);}.cls-21{fill:url(#linear-gradient-10);}.cls-22{fill:url(#linear-gradient-11);}.cls-23{font-size:32.07px;font-family:Perpetua;letter-spacing:0.07em;}.cls-23,.cls-27{fill:#2a2626;}.cls-24{fill:#112849;}.cls-25{fill:url(#linear-gradient-12);}.cls-26{fill:url(#linear-gradient-13);}.cls-28{fill:url(#linear-gradient-14);}.cls-29{fill:url(#linear-gradient-15);}.cls-30{fill:url(#linear-gradient-16);}.cls-31{fill:url(#linear-gradient-17);}.cls-32{fill:url(#linear-gradient-18);}.cls-33{fill:url(#linear-gradient-19);}.cls-34{filter:url(#luminosity-noclip-5);}.cls-35{filter:url(#luminosity-noclip-4);}.cls-36{filter:url(#luminosity-noclip-3);}.cls-37{filter:url(#luminosity-noclip-2);}.cls-38{filter:url(#luminosity-noclip);}</style><filter id="luminosity-noclip" x="1.84" y="-8559.12" width="41.21" height="32766" filterUnits="userSpaceOnUse" color-interpolation-filters="sRGB"><feFlood flood-color="#fff" result="bg"/><feBlend in="SourceGraphic" in2="bg"/></filter><mask id="mask" x="1.84" y="-8559.12" width="41.21" height="32766" maskUnits="userSpaceOnUse"><g class="cls-38"/></mask><linearGradient id="linear-gradient" x1="5.25" y1="101.88" x2="53.71" y2="53.41" gradientUnits="userSpaceOnUse"><stop offset="0"/><stop offset="1" stop-color="gray"/></linearGradient><filter id="luminosity-noclip-2" x="42.94" y="-8559.12" width="27.84" height="32766" filterUnits="userSpaceOnUse" color-interpolation-filters="sRGB"><feFlood flood-color="#fff" result="bg"/><feBlend in="SourceGraphic" in2="bg"/></filter><mask id="mask-2" x="42.94" y="-8559.12" width="27.84" height="32766" maskUnits="userSpaceOnUse"><g class="cls-37"/></mask><linearGradient id="linear-gradient-2" x1="42.07" y1="85.64" x2="69.41" y2="58.3" xlink:href="#linear-gradient"/><filter id="luminosity-noclip-3" x="70.78" y="-8559.12" width="20.41" height="32766" filterUnits="userSpaceOnUse" color-interpolation-filters="sRGB"><feFlood flood-color="#fff" result="bg"/><feBlend in="SourceGraphic" in2="bg"/></filter><mask id="mask-3" x="70.78" y="-8559.12" width="20.41" height="32766" maskUnits="userSpaceOnUse"><g class="cls-36"/></mask><linearGradient id="linear-gradient-3" x1="74.1" y1="81.02" x2="102.82" y2="52.3" xlink:href="#linear-gradient"/><filter id="luminosity-noclip-4" x="91.19" y="-8559.12" width="28.26" height="32766" filterUnits="userSpaceOnUse" color-interpolation-filters="sRGB"><feFlood flood-color="#fff" result="bg"/><feBlend in="SourceGraphic" in2="bg"/></filter><mask id="mask-4" x="91.19" y="-8559.12" width="28.26" height="32766" maskUnits="userSpaceOnUse"><g class="cls-35"/></mask><linearGradient id="linear-gradient-4" x1="97.72" y1="76.2" x2="130.32" y2="43.61" xlink:href="#linear-gradient"/><filter id="luminosity-noclip-5" x="119.33" y="-8559.12" width="36.41" height="32766" filterUnits="userSpaceOnUse" color-interpolation-filters="sRGB"><feFlood flood-color="#fff" result="bg"/><feBlend in="SourceGraphic" in2="bg"/></filter><mask id="mask-5" x="119.33" y="-8559.12" width="36.41" height="32766" maskUnits="userSpaceOnUse"><g class="cls-34"/></mask><linearGradient id="linear-gradient-5" x1="121.48" y1="82.12" x2="169.77" y2="33.83" gradientUnits="userSpaceOnUse"><stop offset="0"/><stop offset="1" stop-color="#4d4d4d"/></linearGradient><filter id="luminosity-noclip-6" x="1.84" y="43.81" width="41.29" height="51.4" filterUnits="userSpaceOnUse" color-interpolation-filters="sRGB"><feFlood flood-color="#fff" result="bg"/><feBlend in="SourceGraphic" in2="bg"/></filter><mask id="mask-6" x="1.84" y="43.81" width="41.29" height="51.4" maskUnits="userSpaceOnUse"><g class="cls-1"><polygon class="cls-2" points="1.84 74.16 43.05 43.81 43.05 95.21 1.87 95.21 1.84 74.16"/></g></mask><linearGradient id="linear-gradient-6" x1="5.29" y1="101.84" x2="52.56" y2="54.57" gradientUnits="userSpaceOnUse"><stop offset="0" stop-color="#73a4d6"/><stop offset="1" stop-color="#90faff"/></linearGradient><filter id="luminosity-noclip-7" x="42.94" y="45.7" width="27.84" height="50.31" filterUnits="userSpaceOnUse" color-interpolation-filters="sRGB"><feFlood flood-color="#fff" result="bg"/><feBlend in="SourceGraphic" in2="bg"/></filter><mask id="mask-7" x="42.94" y="45.7" width="27.84" height="50.31" maskUnits="userSpaceOnUse"><g class="cls-3"><polygon class="cls-4" points="42.94 45.7 42.94 45.7 70.78 52.64 70.78 96.01 43.05 96.01 42.94 45.7"/></g></mask><linearGradient id="linear-gradient-7" x1="42.07" y1="85.64" x2="69.41" y2="58.3" xlink:href="#linear-gradient-6"/><filter id="luminosity-noclip-8" x="70.78" y="40.04" width="20.41" height="55.96" filterUnits="userSpaceOnUse" color-interpolation-filters="sRGB"><feFlood flood-color="#fff" result="bg"/><feBlend in="SourceGraphic" in2="bg"/></filter><mask id="mask-8" x="70.78" y="40.04" width="20.41" height="55.96" maskUnits="userSpaceOnUse"><g class="cls-5"><polygon class="cls-6" points="70.78 52.26 70.78 52.26 91.19 40.04 91.19 96.01 70.78 96.01 70.78 52.26"/></g></mask><linearGradient id="linear-gradient-8" x1="73.94" y1="81.18" x2="102.15" y2="52.97" xlink:href="#linear-gradient-6"/><filter id="luminosity-noclip-9" x="91.19" y="39.48" width="28.26" height="56.53" filterUnits="userSpaceOnUse" color-interpolation-filters="sRGB"><feFlood flood-color="#fff" result="bg"/><feBlend in="SourceGraphic" in2="bg"/></filter><mask id="mask-9" x="91.19" y="39.48" width="28.26" height="56.53" maskUnits="userSpaceOnUse"><g class="cls-7"><polygon class="cls-8" points="91.19 41.2 91.19 41.2 119.44 39.48 119.44 96.01 91.19 96.01 91.19 41.2"/></g></mask><linearGradient id="linear-gradient-9" x1="97.72" y1="76.2" x2="130.32" y2="43.61" xlink:href="#linear-gradient-6"/><filter id="luminosity-noclip-10" x="119.33" y="0.41" width="36.41" height="94.9" filterUnits="userSpaceOnUse" color-interpolation-filters="sRGB"><feFlood flood-color="#fff" result="bg"/><feBlend in="SourceGraphic" in2="bg"/></filter><mask id="mask-10" x="119.33" y="0.41" width="36.41" height="94.9" maskUnits="userSpaceOnUse"><g class="cls-9"><polygon class="cls-10" points="155.74 0.41 155.74 95.3 119.33 95.3 119.33 40.05 119.33 40.05 155.74 0.41"/></g></mask><linearGradient id="linear-gradient-10" x1="121.59" y1="82.29" x2="169.67" y2="34.22" xlink:href="#linear-gradient-6"/><linearGradient id="linear-gradient-11" x1="60.7" y1="113.65" x2="117.95" y2="56.41" gradientUnits="userSpaceOnUse"><stop offset="0" stop-color="#73a4d6"/><stop offset="1" stop-color="#90faff"/></linearGradient><linearGradient id="linear-gradient-12" x1="6105.16" y1="-2302.17" x2="6086.5" y2="-2253.28" gradientTransform="matrix(0.43, 0.11, -0.15, 0.59, -2830.96, 749.99)" gradientUnits="userSpaceOnUse"><stop offset="0" stop-color="#ff335f"/><stop offset="1" stop-color="#5451cb"/></linearGradient><linearGradient id="linear-gradient-13" x1="1004.17" y1="74.84" x2="1027.81" y2="74.84" gradientTransform="matrix(0.86, -0.01, 0.01, 0.87, -727.82, 25.28)" xlink:href="#linear-gradient-12"/><linearGradient id="linear-gradient-14" x1="69.38" y1="52.06" x2="71.83" y2="52.21" gradientTransform="matrix(1, 0, 0, 1, 0, 0)" xlink:href="#linear-gradient-12"/><linearGradient id="linear-gradient-15" x1="41.82" y1="45.88" x2="44.27" y2="46.03" gradientTransform="matrix(1, 0, 0, 1, 0, 0)" xlink:href="#linear-gradient-12"/><linearGradient id="linear-gradient-16" x1="89.96" y1="41.03" x2="92.41" y2="41.19" gradientTransform="matrix(1, 0, 0, 1, 0, 0)" xlink:href="#linear-gradient-12"/><linearGradient id="linear-gradient-17" x1="118.22" y1="39.31" x2="120.67" y2="39.47" gradientTransform="matrix(1, 0, 0, 1, 0, 0)" xlink:href="#linear-gradient-12"/><linearGradient id="linear-gradient-18" x1="154.34" y1="1.07" x2="156.79" y2="1.22" gradientTransform="matrix(1, 0, 0, 1, 0, 0)" xlink:href="#linear-gradient-12"/><linearGradient id="linear-gradient-19" x1="0" y1="73.75" x2="2.46" y2="73.91" gradientTransform="matrix(1, 0, 0, 1, 0, 0)" xlink:href="#linear-gradient-12"/></defs><g class="cls-11"><g id="Layer_2" data-name="Layer 2"><g id="Layer_1-2" data-name="Layer 1"><g class="cls-12"><polygon class="cls-13" points="1.84 74.16 43.13 46.19 43.05 95.21 1.87 95.21 1.84 74.16"/></g><g class="cls-14"><polygon class="cls-15" points="42.94 45.7 42.94 45.7 70.78 52.64 70.78 96.01 43.05 96.01 42.94 45.7"/></g><g class="cls-16"><polygon class="cls-17" points="70.78 52.26 70.78 52.26 91.19 41.39 91.19 96.01 70.78 96.01 70.78 52.26"/></g><g class="cls-18"><polygon class="cls-19" points="91.19 41.2 91.19 41.2 119.44 39.48 119.44 96.01 91.19 96.01 91.19 41.2"/></g><g class="cls-20"><polygon class="cls-21" points="155.74 0.97 155.74 95.3 119.33 95.3 119.33 39.62 119.33 40.05 155.74 0.97"/></g><rect class="cls-22" x="2.04" y="94.94" width="153.69" height="1.07"/><text class="cls-23" transform="translate(2.56 93.42) scale(1.02 1)">FIN<tspan class="cls-24" x="51.05" y="0">GINE</tspan></text><polygon class="cls-25" points="154.37 64.18 146.96 69.82 148.31 70.15 135.11 93.38 140.13 93.42 152.51 71.19 153.83 71.51 154.37 64.18"/><polyline class="cls-26" points="134.44 73 149.66 93.17 154.89 93.13 138.97 72.97"/><polygon class="cls-27" points="119.22 39.22 91.39 40.91 70.61 52.13 42.96 45.72 1.13 73.9 1.7 74.1 43.13 46.19 70.73 52.59 91.64 41.3 119.59 39.6 155.67 1.81 155.68 1.04 119.22 39.22"/><ellipse class="cls-28" cx="70.6" cy="52.13" rx="1.23" ry="1.14"/><ellipse class="cls-29" cx="43.05" cy="45.95" rx="1.23" ry="1.14"/><ellipse class="cls-30" cx="91.19" cy="41.11" rx="1.23" ry="1.14"/><ellipse class="cls-31" cx="119.44" cy="39.39" rx="1.23" ry="1.14"/><ellipse class="cls-32" cx="155.57" cy="1.14" rx="1.23" ry="1.14"/><ellipse class="cls-33" cx="1.23" cy="73.83" rx="1.23" ry="1.14"/></g></g></g></svg>